<svg aria-hidden="true" style="position:absolute;width:0;height:0;overflow:hidden" xmlns="http://www.w3.org/2000/svg">
  <defs>
    <symbol id="icon-arrow" viewBox="0 0 82 32">
      <path
        d="M81.414 17.414a2 2 0 0 0 0-2.828L68.686 1.858a2 2 0 1 0-2.828 2.828L77.172 16 65.858 27.314a2 2 0 1 0 2.828 2.828l12.728-12.728zM0 18h80v-4H0v4z" />
    </symbol>
    <symbol id="icon-facebook" viewBox="0 0 32 32">
      <path fill="#f8d24e" style="fill:var(--color1, #f8d24e)"
        d="M16 32c8.837 0 16-7.163 16-16S24.837 0 16 0 0 7.163 0 16s7.163 16 16 16z" />
      <path
        d="M20.446 15.982h-2.61v9.619h-3.955v-9.619H12v-3.38h1.881v-2.187c0-1.564.739-4.014 3.99-4.014l2.929.012v3.281h-2.125c-.349 0-.839.175-.839.921v1.989h2.955l-.346 3.377z" />
    </symbol>
    <symbol id="icon-github" viewBox="0 0 32 32">
      <path fill="#f8d24e" style="fill:var(--color1, #f8d24e)"
        d="M32 16c0 8.837-7.163 16-16 16S0 24.837 0 16 7.163 0 16 0s16 7.163 16 16z" />
      <path
        d="M16 6.588c-5.169 0-9.412 4.242-9.412 9.412 0 4.411 3.095 8.419 7.206 9.412v-3.114a2.307 2.307 0 0 1-1.197-.03c-.556-.164-1.008-.535-1.344-1.1-.214-.361-.593-.752-.988-.723l-.097-1.099c.855-.073 1.595.521 2.034 1.259.195.328.419.52.708.605.278.082.578.043.926-.08.088-.698.407-.959.648-1.326v-.001c-2.451-.366-3.428-1.666-3.816-2.693-.514-1.363-.238-3.066.671-4.142.018-.021.05-.076.037-.114-.417-1.258.091-2.299.11-2.41.481.142.559-.143 2.089.786l.264.159c.111.066.076.028.186.02A8.031 8.031 0 0 1 16 11.131a8.016 8.016 0 0 1 2.002.285l.086.009c-.007-.001.023-.005.075-.036 1.911-1.157 1.842-.779 2.355-.946.019.111.519 1.169.107 2.411-.056.171 1.657 1.739.708 4.256-.388 1.027-1.365 2.328-3.816 2.693v.001c.314.479.692.734.69 1.722v3.887c4.111-.993 7.206-5 7.206-9.412 0-5.169-4.242-9.412-9.412-9.412z" />
    </symbol>
    <symbol id="icon-telegram" viewBox="0 0 32 32">
      <path fill="#f8d24e" style="fill:var(--color1, #f8d24e)"
        d="M32 16c0 8.837-7.163 16-16 16S0 24.837 0 16 7.163 0 16 0s16 7.163 16 16z" />
      <path
        d="m12.869 18.375-.318 4.169c.454 0 .651-.182.887-.401l2.13-1.9 4.415 3.017c.81.421 1.38.199 1.598-.695l2.898-12.672.001-.001c.257-1.117-.433-1.554-1.222-1.28L6.226 14.698c-1.162.421-1.145 1.026-.198 1.3l4.354 1.264 10.115-5.907c.476-.294.909-.131.553.163l-8.182 6.857z" />
    </symbol>
    <symbol id="icon-ice-crema" viewBox="0 0 32 32">
      <path
        d="M16.108.107c.08.214.241 1.252.241 1.573 0 .797-.295 1.54-.837 2.122-.449.482-.897.75-1.975 1.185-1.198.489-1.694.783-2.256 1.339-.569.569-.904 1.192-1.024 1.921-.134.797 0 1.359.408 1.68l.208.161-.328.208c-.663.435-1.868 1.459-2.075 1.774-.402.603-.361 1.165.094 1.392l.214.107-.241.228c-.361.341-.435.576-.382 1.192.033.408.02.629-.074.964-.114.435-.114.442.033.75.147.301.562.683.937.843.181.08.187.107.228.723.02.355.053 1.486.08 2.517.02 1.031.067 1.975.107 2.089a.79.79 0 0 0 .274.361c.388.268.656.556.83.89.194.382.408 1.319 1.058 4.559l.455 2.276.281.268c.536.529 1.56.77 3.247.77 1.694 0 2.705-.234 3.24-.763l.288-.274.415-2.109c.917-4.613.997-4.867 1.714-5.436.221-.181.435-.402.475-.502.047-.114.094-.991.127-2.316.027-1.178.067-2.343.094-2.591l.04-.449.435-.328c.549-.422.763-.803.763-1.393-.007-.696-.462-1.459-1.292-2.142l-.395-.321.194-.274c.81-1.118.301-2.664-1.205-3.695l-.455-.315.167-.174c.743-.797.864-3.173.241-4.827-.375-.984-1.232-2.055-2.283-2.845C17.659.857 16.239 0 16.112 0c-.027 0-.027.047-.007.107zm1.928 2.336c.355.348.783.823.951 1.064.997 1.392 1.252 3.14.649 4.425-.241.522-.964 1.299-1.633 1.761-1.024.71-3.327 1.901-4.934 2.557-2.584 1.051-4.084 1.252-4.258.562-.067-.261.127-.469.951-1.018.743-.509 4.077-2.986 4.137-3.086.02-.027-.321.127-.75.341-1.453.736-2.142.596-2.109-.428.02-.743.556-1.587 1.299-2.069.187-.12.77-.388 1.305-.603 1.761-.71 2.296-1.071 2.892-1.962.355-.529.743-1.506.77-1.921.007-.147.034-.261.054-.261s.321.288.676.636zm1.828 7.606c.489.274.997.743 1.218 1.111.388.663.187 1.325-.649 2.169-.91.924-2.464 1.808-4.171 2.37-1.573.515-3.079.756-5.235.83l-1.339.047.87.054c1.125.074 3.3.007 4.144-.127 2.243-.355 4.151-1.064 5.516-2.042.308-.221.629-.402.716-.402.221 0 1.185.924 1.379 1.312.107.221.134.382.114.596-.1.89-1.185 1.366-3.802 1.68-3.2.382-7.384.007-9.172-.817-.844-.388-.984-.609-.77-1.198.067-.187.08-.408.054-.723-.033-.415-.027-.469.12-.623.335-.361.897-.569 2.959-1.091a28.11 28.11 0 0 0 2.176-.656c1.138-.415 3.274-1.493 4.264-2.156.93-.616 1.064-.643 1.607-.335zm-8.89 8.194c1.406.408 2.651.529 4.967.482 1.741-.034 2.812-.141 4.358-.415.315-.053.589-.1.623-.1.074 0 .053 2.571-.027 3.247-.087.716-.281 1.272-.489 1.406-.214.141-1.285.288-2.718.368-2.939.161-5.958 0-6.895-.375-.509-.207-.562-.475-.569-2.959 0-1.654.013-1.881.1-1.848.053.02.348.107.649.194zm1.586 5.69c.482.06 1.004.121 1.165.141l.288.034-.254.281c-.328.355-.83 1.064-1.011 1.426-.207.415-.274.442-.582.274l-.261-.147-.147-.91c-.08-.495-.167-.971-.187-1.051-.06-.174-.12-.174.991-.047zm7.137-.074c0 .013-.033.187-.067.382-.04.201-.208 1.292-.375 2.43-.341 2.377-.569 3.495-.777 3.869-.288.502-.977.797-2.095.89-.435.034-1.747-.053-1.821-.12-.053-.06 1.098-1.486 1.279-1.58.167-.094.214-.08.783.214.663.348.997.402.997.181s-.174-.435-.602-.73c-.395-.281-.536-.442-.536-.629 0-.053.194-.355.428-.669s.576-.817.75-1.118l.328-.542.301.04c.609.087.77.08.75-.053-.013-.067-.127-.261-.254-.422-.127-.167-.228-.335-.228-.368 0-.127.623-1.299.823-1.546.174-.214.315-.321.315-.228zm-4.184.536c.335.221 1.593 1.312 1.674 1.446.034.06-1.259 2.082-1.513 2.37-.027.034-.167-.033-.308-.141a22.133 22.133 0 0 0-1.165-.803l-.904-.596.542-.917c.964-1.613.944-1.587 1.151-1.587.107 0 .341.1.522.228zm2.537.241c-.234.288-.428.469-.509.469-.174 0-.455-.154-.93-.502l-.395-.288.79-.047c.428-.02.844-.047.917-.06.536-.087.536-.08.127.428zm-5.061 3.22c.616.241 1.66.81 1.962 1.064.214.174.214.187.127.402a6.675 6.675 0 0 1-.415.716c-.174.268-.375.602-.449.743-.214.415-.281.449-.723.328-.475-.141-.73-.382-.864-.817-.181-.609-.469-2.33-.435-2.598.013-.1.295-.04.797.161z" />
    </symbol>
    <symbol id="icon-weight" viewBox="0 0 32 32">
      <path
        d="M14.177.547c-3.974.589-7.247 2.796-8.451 5.685-.384.913-.488 1.473-.488 2.573.007.812.037 1.114.162 1.552.259.863.443 1.301.827 1.919l.355.575-.399.489c-3.154 3.924-3.502 9.444-.872 13.793.982 1.632 2.585 3.234 4.152 4.169l.465.273 12.743-.108.303-.165c1.056-.597 2.549-1.926 3.383-3.004a12.61 12.61 0 0 0 2.423-5.621c.118-.74.118-2.932-.007-3.63-.377-2.149-1.182-3.989-2.453-5.621-.244-.309-.436-.568-.436-.589 0-.014.133-.237.288-.489a7.762 7.762 0 0 0 .864-1.962c.199-.719.199-2.516 0-3.234-.709-2.552-2.837-4.679-5.843-5.851C20.351.97 18.91.618 17.98.503c-.864-.101-2.999-.079-3.804.043zm4.499 1.171c3.945.769 6.833 3.184 7.365 6.16.118.668.044 1.804-.155 2.437-.199.618-.569 1.344-1.005 1.962-.177.252-.325.539-.325.633s.155.338.377.582c1.847 2.048 2.822 4.614 2.822 7.389-.007 3.155-1.219 5.922-3.553 8.093-.399.374-.968.841-1.271 1.042l-.554.374-12.211.05-.473-.302c-1.714-1.114-3.258-2.954-4.115-4.909-1.079-2.472-1.189-5.34-.31-7.913.465-1.337 1.086-2.429 2.031-3.579.384-.46.561-.733.561-.863 0-.108-.192-.46-.443-.827-.886-1.287-1.248-2.717-1.034-4.068.222-1.366.842-2.487 1.987-3.601 1.492-1.445 3.575-2.401 6.02-2.76 1.012-.151 3.25-.093 4.285.101z" />
      <path
        d="M14.51 2.983c-3.029.496-5.4 2.178-6.176 4.384-.177.496-.207.69-.207 1.402s.03.906.207 1.402c.111.316.318.755.458.978.384.618.554.64 1.315.18a11.972 11.972 0 0 1 3.804-1.488c.916-.187 2.674-.259 3.671-.144 1.559.18 3.25.74 4.602 1.538.384.223.776.41.872.41.561 0 1.278-1.617 1.278-2.875 0-2.796-2.674-5.189-6.464-5.786-.805-.129-2.585-.129-3.361 0zm3.656 1.15c1.271.273 2.438.791 3.317 1.473 1.182.913 1.817 2.185 1.714 3.414-.037.489-.222 1.15-.332 1.222-.029.014-.443-.158-.916-.388a14.721 14.721 0 0 0-3.228-1.1c-.687-.144-.975-.165-2.512-.158-1.514 0-1.832.022-2.489.158a13.254 13.254 0 0 0-3.117 1.064c-1.101.525-1.042.532-1.241-.115-.258-.841-.096-1.955.406-2.796.266-.446.997-1.186 1.529-1.553 1.012-.697 1.899-1.013 3.804-1.358.391-.072 2.563.029 3.066.137zM16.962 13.405c-.207.259-.207.503.007.712.14.137.281.172.79.208.99.072 1.935.359 2.785.848.606.359 1.529 1.229 1.943 1.854.613.898 1.034 2.185 1.034 3.134 0 .331.029.431.185.575.236.237.547.237.776 0 .163-.165.17-.208.125-.913-.207-3.479-3.184-6.383-6.744-6.577l-.739-.043-.163.201z" />
    </symbol>
    <symbol id="icon-cow" viewBox="0 0 31 32">
      <path
        d="M6.002.778c-.254.219-.979 1.733-1.24 2.559-.31 1.024-.416 1.791-.373 2.852.056 1.514.437 2.661 1.275 3.861.218.314.394.585.394.607 0 .015-.134.029-.303.029-.726 0-2.085.241-3.128.556C.972 11.739 0 12.609 0 13.582c0 .344.31.929.641 1.228.641.578 2.043 1.126 3.55 1.389.521.095 2.071.256 2.416.263.063 0 .085.336.085 1.44 0 .951.035 1.689.106 2.142.254 1.623 1.043 3.341 2.085 4.555l.359.417-.24.387c-.352.548-.486.965-.528 1.587-.106 1.492.824 2.815 2.62 3.744 3.423 1.777 8.742 1.082 10.735-1.404.972-1.214 1.085-2.603.317-3.861l-.239-.388.43-.519c.803-.965 1.324-1.93 1.719-3.151.331-1.038.458-2.04.458-3.627 0-.724.021-1.323.056-1.323.324-.007 1.881-.175 2.374-.263 1.515-.263 2.888-.804 3.55-1.389.331-.3.641-.885.641-1.228 0-1.082-1.099-1.96-3.142-2.486-.669-.175-1.93-.387-2.543-.424l-.289-.022.317-.439c.394-.534.888-1.572 1.078-2.252.535-1.967.204-4.255-.944-6.442-.479-.907-.81-1.119-1.198-.76-.148.139-.211.329-.352 1.016-.437 2.186-1.247 3.919-2.43 5.199l-.521.57H9.967l-.465-.505c-1.155-1.272-1.993-3.071-2.43-5.264-.141-.687-.204-.877-.352-1.016-.232-.212-.458-.205-.718.022zm.901 4.336c.373.819.838 1.587 1.388 2.296l.437.563-.458.344a4.6 4.6 0 0 0-1.141 1.331l-.134.241-.338-.461c-1.155-1.594-1.444-3.546-.831-5.571.296-.98.289-.972.556-.124.127.409.366 1.031.521 1.382zm18.336-1.543a7.22 7.22 0 0 1 .402 2.464c0 1.331-.352 2.457-1.092 3.466l-.331.453-.247-.417a4.38 4.38 0 0 0-1.233-1.353c-.19-.124-.338-.249-.338-.263 0-.022.134-.19.303-.373.782-.87 1.62-2.435 2.036-3.78.127-.417.254-.76.275-.76s.127.256.225.563zM21.64 8.916c.782.329 1.529 1.272 1.648 2.069.063.439.211.717.402.76.084.015.669.066 1.296.11 2.226.146 3.98.621 4.727 1.272.345.307.31.563-.106.877-.831.629-2.627 1.104-4.459 1.184-1.212.051-1.465.088-1.627.256-.12.124-.134.256-.134 1.579 0 1.791-.092 2.822-.317 3.656-.317 1.133-.944 2.34-1.677 3.195l-.303.351-.627-.373a7.77 7.77 0 0 0-2.325-.943c-2.67-.636-5.621-.249-7.608 1.002l-.458.293-.289-.344c-.394-.461-1.014-1.448-1.261-2.003-.542-1.258-.704-2.281-.704-4.533 0-2.186.113-2.025-1.507-2.113-2.071-.11-3.649-.483-4.642-1.111-.733-.468-.613-.885.409-1.375.979-.475 2.325-.76 4.191-.877 1.451-.095 1.486-.117 1.62-.819.197-1.06.979-1.938 1.965-2.215.246-.073 1.627-.088 5.854-.08l5.53.015.401.168zm-3.959 15.135c1.726.424 3.015 1.214 3.571 2.193.134.227.19.461.218.819.028.446.007.556-.162.921-.782 1.66-3.656 2.756-6.579 2.508-3.515-.293-5.826-2.252-4.917-4.175.493-1.038 2.163-2.033 3.924-2.325.289-.044.578-.095.634-.11s.69-.015 1.409 0c.979.022 1.451.066 1.902.168z" />
      <path
        d="M10.693 12.579c-.437.146-.733.336-1.127.731-.345.329-.373.717-.085.95.268.219.521.19.845-.095.409-.358.726-.504 1.12-.504.394-.007.697.132 1.12.504.324.285.578.314.845.095.141-.117.183-.212.183-.431 0-.227-.049-.329-.296-.578-.697-.702-1.733-.972-2.606-.673zM18.906 12.571c-.451.168-1.029.548-1.261.833-.225.278-.232.592 0 .826.232.249.514.234.852-.044.831-.687 1.451-.709 2.219-.073.197.168.423.3.493.3.345 0 .627-.307.627-.673 0-.234-.585-.775-1.113-1.031-.585-.285-1.282-.336-1.817-.139zM11.714 26.106c-.204.197-.275.483-.169.709.078.183.197.256.683.388.218.058.31.132.387.314.099.241.106.241.648.263l.542.022v-.205c-.007-.293-.169-.717-.38-1.009-.247-.336-.676-.556-1.162-.6-.331-.029-.416-.015-.549.117zM18.442 26.054c-.352.095-.859.57-1 .943a2.54 2.54 0 0 0-.134.665c-.014.314.014.388.183.541.416.366.965.08.965-.504 0-.285.211-.483.585-.556.394-.073.535-.234.542-.607 0-.49-.437-.68-1.141-.483z" />
    </symbol>
    <symbol id="icon-burger" viewBox="0 0 32 32">
      <path
        d="M5 10c0-0.552 0.448-1 1-1v0h20c0.552 0 1 0.448 1 1s-0.448 1-1 1v0h-20c-0.552 0-1-0.448-1-1v0zM5 16c0-0.552 0.448-1 1-1v0h20c0.552 0 1 0.448 1 1s-0.448 1-1 1v0h-20c-0.552 0-1-0.448-1-1v0zM5 22c0-0.552 0.448-1 1-1v0h20c0.552 0 1 0.448 1 1s-0.448 1-1 1v0h-20c-0.552 0-1-0.448-1-1v0z">
      </path>
    </symbol>
    <symbol id="icon-cross" viewBox="0 0 32 32">
      <path
        d="M23.884 6.706l-7.884 7.884-7.884-7.884c-0.177-0.162-0.414-0.262-0.674-0.262-0.551 0-0.998 0.447-0.998 0.998 0 0.26 0.099 0.497 0.262 0.674l-0.001-0.001 7.88 7.884-7.882 7.882c-0.181 0.181-0.293 0.43-0.293 0.706 0 0.551 0.447 0.998 0.998 0.998 0.275 0 0.524-0.111 0.705-0.292v0l7.886-7.882 7.884 7.884c0.177 0.162 0.414 0.262 0.674 0.262 0.551 0 0.998-0.447 0.998-0.998 0-0.26-0.099-0.497-0.262-0.674l0.001 0.001-7.884-7.884 7.884-7.886c0.181-0.181 0.293-0.43 0.293-0.706 0-0.551-0.447-0.998-0.998-0.998-0.275 0-0.524 0.111-0.705 0.292v0 0.002z">
      </path>
    </symbol>
    <symbol id="icon-button-arrow" viewBox="0 0 32 32">
      <path
        d="M8.592 3.659c0.493-0.608 1.239-0.993 2.076-0.993 0.637 0 1.222 0.224 1.681 0.597l-0.005-0.004 13.2 10.667c0.607 0.493 0.991 1.239 0.991 2.075s-0.385 1.582-0.986 2.071l-0.005 0.004-13.2 10.667c-0.454 0.369-1.039 0.592-1.676 0.592-1.473 0-2.667-1.194-2.667-2.667 0-0.836 0.384-1.582 0.986-2.071l0.005-0.004 10.632-8.592-10.632-8.592c-0.607-0.493-0.991-1.239-0.991-2.075 0-0.637 0.223-1.221 0.595-1.68l-0.004 0.005z">
      </path>
    </symbol>
    <symbol id="icon-smiles" viewBox="0 0 30 32">
      <path fill="#fff" style="fill: var(--color1, #fff)"
        d="M20.419 10.93c0.637 0.35 1.64-0.169 2.242-1.159s0.573-2.075-0.063-2.424c-0.637-0.349-1.64 0.169-2.242 1.159s-0.573 2.075 0.063 2.424z">
      </path>
      <path fill="#000" style="fill: var(--color2, #000)"
        d="M22.549 7.427c0.579 0.318 0.592 1.37 0.027 2.298s-1.53 1.443-2.109 1.125c-0.579-0.318-0.592-1.37-0.027-2.298s1.53-1.442 2.109-1.125zM22.647 7.267c-0.683-0.375-1.747 0.159-2.375 1.192s-0.584 2.176 0.099 2.551c0.683 0.375 1.747-0.159 2.375-1.192s0.585-2.175-0.099-2.551z">
      </path>
      <path fill="#000" style="fill: var(--color2, #000)"
        d="M20.972 10.021c0.357 0.196 0.916-0.088 1.248-0.634s0.312-1.148-0.045-1.344c-0.357-0.196-0.916 0.088-1.248 0.634s-0.312 1.148 0.045 1.344z">
      </path>
      <path fill="#000" style="fill: var(--color2, #000)"
        d="M22.159 8.069c0.341 0.187 0.356 0.771 0.033 1.302s-0.863 0.81-1.204 0.623c-0.341-0.187-0.356-0.771-0.033-1.302s0.863-0.81 1.204-0.623zM22.192 8.016c-0.373-0.205-0.951 0.085-1.293 0.646s-0.316 1.182 0.057 1.387c0.373 0.205 0.951-0.085 1.293-0.646s0.316-1.182-0.057-1.387z">
      </path>
      <path fill="#fff" style="fill: var(--color1, #fff)"
        d="M21.738 9.265c0.215 0.118 0.52-0.002 0.682-0.268s0.119-0.577-0.096-0.695c-0.215-0.118-0.52 0.002-0.682 0.268s-0.119 0.577 0.096 0.695z">
      </path>
      <path fill="#000" style="fill: var(--color2, #000)"
        d="M18.175 3.822c0.717 0.048 1.367 0.407 1.77 0.973 0.14 0.197 0.48 0.013 0.34-0.184-0.486-0.683-1.244-1.102-2.111-1.16-0.25-0.017-0.248 0.355 0.001 0.371zM22.227 6.045c0.717 0.048 1.367 0.407 1.77 0.973 0.14 0.197 0.48 0.014 0.34-0.184-0.486-0.683-1.244-1.102-2.111-1.16-0.25-0.017-0.248 0.355 0.001 0.371z">
      </path>
      <path fill="#000" style="fill: var(--color2, #000)"
        d="M13.977 9.284c0.611 1.044 1.706 2.087 3.144 2.876l-0.121 0.199c-1.468-0.805-2.596-1.875-3.231-2.96-0.633-1.082-0.786-2.2-0.253-3.077l0.204 0.112c-0.472 0.777-0.357 1.803 0.256 2.849z">
      </path>
      <path fill="#000" style="fill: var(--color2, #000)"
        d="M21.315 13.31c1.26-0.019 2.253-0.437 2.725-1.214l0.204 0.112c-0.533 0.877-1.628 1.31-2.93 1.33-1.306 0.020-2.845-0.373-4.313-1.179l0.121-0.199c1.438 0.789 2.937 1.169 4.194 1.149zM14.357 6.589l-1.465-0.305 0.055-0.223 1.465 0.305-0.055 0.223z">
      </path>
      <path fill="#000" style="fill: var(--color2, #000)"
        d="M24.504 12.518l-0.835-0.601 0.145-0.184 0.835 0.601-0.145 0.184z"></path>
      <path fill="#fff" style="fill: var(--color1, #fff)"
        d="M5.322 17.943c0.593-0.19 0.809-1.091 0.483-2.014s-1.073-1.516-1.666-1.327c-0.593 0.19-0.809 1.091-0.483 2.014s1.073 1.516 1.666 1.327z">
      </path>
      <path fill="#000" style="fill: var(--color2, #000)"
        d="M4.165 14.678c0.54-0.173 1.254 0.412 1.561 1.277s0.109 1.741-0.431 1.914c-0.54 0.173-1.254-0.412-1.561-1.277s-0.109-1.741 0.431-1.914zM4.112 14.528c-0.637 0.204-0.876 1.15-0.535 2.114s1.134 1.58 1.771 1.376c0.637-0.204 0.876-1.15 0.535-2.114s-1.134-1.58-1.771-1.376z">
      </path>
      <path fill="#fff" style="fill: var(--color1, #fff)"
        d="M8.941 16.787c0.593-0.19 0.809-1.091 0.483-2.014s-1.073-1.516-1.666-1.327c-0.593 0.19-0.809 1.091-0.483 2.014s1.073 1.516 1.666 1.327z">
      </path>
      <path fill="#000" style="fill: var(--color2, #000)"
        d="M7.785 13.522c0.54-0.173 1.254 0.412 1.561 1.277s0.109 1.741-0.431 1.914-1.254-0.412-1.561-1.277c-0.306-0.865-0.109-1.741 0.431-1.914zM7.732 13.372c-0.637 0.204-0.876 1.15-0.535 2.114s1.134 1.58 1.771 1.376c0.637-0.204 0.876-1.15 0.535-2.114s-1.134-1.58-1.771-1.376zM5.022 17.096c0.333-0.107 0.456-0.606 0.276-1.115s-0.596-0.836-0.929-0.73c-0.333 0.107-0.456 0.606-0.276 1.115s0.596 0.836 0.929 0.73z">
      </path>
      <path fill="#000" style="fill: var(--color2, #000)"
        d="M4.377 15.276c0.318-0.102 0.719 0.218 0.894 0.713s0.059 0.98-0.259 1.082c-0.318 0.102-0.719-0.218-0.894-0.713s-0.059-0.98 0.259-1.082zM4.359 15.226c-0.348 0.111-0.479 0.625-0.293 1.148s0.617 0.857 0.964 0.746c0.348-0.111 0.479-0.625 0.293-1.148s-0.617-0.857-0.964-0.746zM8.641 15.94c0.333-0.107 0.456-0.606 0.276-1.115s-0.597-0.836-0.929-0.73c-0.333 0.106-0.456 0.606-0.276 1.115s0.596 0.836 0.929 0.73z">
      </path>
      <path fill="#000" style="fill: var(--color2, #000)"
        d="M7.997 14.12c0.318-0.102 0.719 0.218 0.894 0.713s0.059 0.98-0.259 1.082c-0.318 0.102-0.719-0.218-0.894-0.713s-0.059-0.98 0.259-1.082zM7.979 14.070c-0.348 0.111-0.479 0.625-0.293 1.148s0.617 0.857 0.964 0.746c0.347-0.111 0.479-0.625 0.293-1.148s-0.617-0.857-0.964-0.746z">
      </path>
      <path fill="#fff" style="fill: var(--color1, #fff)"
        d="M4.455 16.306c0.2-0.064 0.292-0.317 0.204-0.565s-0.321-0.397-0.522-0.333c-0.2 0.064-0.292 0.317-0.204 0.565s0.321 0.397 0.522 0.333zM8.039 15.050c0.2-0.064 0.291-0.317 0.204-0.565s-0.321-0.397-0.522-0.333c-0.2 0.064-0.292 0.317-0.204 0.565s0.321 0.397 0.522 0.333z">
      </path>
      <path fill="#000" style="fill: var(--color2, #000)"
        d="M3.169 14.006c0.088-0.303 0.244-0.616 0.564-0.748 0.298-0.123 0.632-0.046 0.919 0.070 0.196 0.080 0.345-0.203 0.147-0.283-0.382-0.155-0.82-0.24-1.213-0.072-0.414 0.177-0.628 0.57-0.743 0.968-0.057 0.197 0.268 0.259 0.325 0.064zM6.987 12.474c0.833 0.089 1.69-0.020 2.464-0.324 0.196-0.077 0.091-0.378-0.106-0.3-0.719 0.282-1.516 0.397-2.291 0.314-0.211-0.023-0.28 0.287-0.067 0.31z">
      </path>
      <path fill="#000" style="fill: var(--color2, #000)"
        d="M4.451 20.117c1.043 0.217 2.358 0.14 3.697-0.287l0.078 0.22c-1.37 0.438-2.728 0.52-3.818 0.293-1.086-0.226-1.931-0.766-2.224-1.593l0.222-0.071c0.253 0.715 0.999 1.22 2.045 1.438zM11.277 17.937c0.696-0.774 0.969-1.605 0.716-2.32l0.222-0.071c0.292 0.827-0.038 1.742-0.761 2.546-0.725 0.806-1.859 1.52-3.229 1.957l-0.078-0.22c1.339-0.427 2.436-1.122 3.129-1.893z">
      </path>
      <path fill="#000" style="fill: var(--color2, #000)"
        d="M2.863 18.401l-1.031 0.718-0.139-0.189 1.031-0.717 0.139 0.189zM12.559 15.587l-0.875 0.168-0.051-0.227 0.875-0.168 0.051 0.227z">
      </path>
      <path fill="#fff" style="fill: var(--color1, #fff)"
        d="M18.257 23.549c0.628 0.419 1.721-0.032 2.442-1.007s0.797-2.106 0.169-2.524c-0.628-0.419-1.721 0.032-2.442 1.008s-0.796 2.105-0.169 2.524z">
      </path>
      <path fill="#000" style="fill: var(--color2, #000)"
        d="M20.809 20.096c0.571 0.381 0.482 1.475-0.194 2.39s-1.729 1.365-2.3 0.984c-0.571-0.381-0.483-1.475 0.193-2.39s1.73-1.365 2.3-0.984zM20.926 19.938c-0.673-0.449-1.83 0.012-2.583 1.031s-0.818 2.209-0.144 2.659c0.673 0.449 1.83-0.012 2.583-1.031s0.818-2.209 0.144-2.659z">
      </path>
      <path fill="#fff" style="fill: var(--color1, #fff)"
        d="M22.085 26.102c0.628 0.419 1.721-0.032 2.442-1.008s0.796-2.105 0.169-2.524c-0.628-0.419-1.721 0.032-2.442 1.007s-0.796 2.106-0.169 2.524z">
      </path>
      <path fill="#000" style="fill: var(--color2, #000)"
        d="M24.637 22.649c0.571 0.381 0.482 1.475-0.194 2.39s-1.729 1.365-2.3 0.984c-0.571-0.381-0.483-1.475 0.194-2.39s1.73-1.365 2.3-0.984zM24.754 22.491c-0.674-0.45-1.83 0.012-2.583 1.031s-0.818 2.209-0.144 2.659 1.83-0.012 2.583-1.031c0.753-1.019 0.818-2.209 0.144-2.659zM19.531 22.274c0.352 0.235 0.96-0.011 1.358-0.55s0.435-1.166 0.083-1.401c-0.352-0.235-0.96 0.011-1.358 0.55s-0.435 1.166-0.083 1.401z">
      </path>
      <path fill="#000" style="fill: var(--color2, #000)"
        d="M20.953 20.349c0.336 0.225 0.295 0.832-0.091 1.356s-0.975 0.767-1.311 0.542c-0.336-0.225-0.295-0.832 0.092-1.356s0.975-0.766 1.311-0.542zM20.992 20.297c-0.368-0.245-0.997 0.005-1.405 0.558s-0.443 1.2-0.075 1.446 0.997-0.005 1.405-0.558c0.409-0.553 0.443-1.2 0.075-1.446zM23.414 24.864c0.352 0.235 0.96-0.011 1.358-0.55s0.435-1.166 0.083-1.401c-0.352-0.235-0.96 0.011-1.358 0.55s-0.435 1.166-0.083 1.401z">
      </path>
      <path fill="#000" style="fill: var(--color2, #000)"
        d="M24.836 22.939c0.336 0.225 0.295 0.832-0.091 1.356s-0.975 0.767-1.311 0.542c-0.336-0.225-0.295-0.832 0.092-1.356s0.975-0.766 1.311-0.542zM24.875 22.887c-0.368-0.245-0.997 0.005-1.405 0.558s-0.443 1.2-0.075 1.446c0.367 0.245 0.997-0.005 1.405-0.558s0.443-1.2 0.075-1.446z">
      </path>
      <path fill="#fff" style="fill: var(--color1, #fff)"
        d="M19.342 22.029c0.165 0.11 0.42 0.034 0.571-0.17s0.139-0.458-0.026-0.568c-0.165-0.11-0.42-0.034-0.571 0.17s-0.139 0.458 0.025 0.568zM23.242 24.709c0.165 0.11 0.42 0.034 0.571-0.17s0.139-0.458-0.025-0.568c-0.165-0.11-0.42-0.034-0.571 0.17s-0.139 0.458 0.026 0.568z">
      </path>
      <path fill="#000" style="fill: var(--color2, #000)"
        d="M20.309 18.519c0.776 0.026 1.467 0.378 1.924 0.974 0.154 0.201 0.468-0.046 0.315-0.246-0.517-0.674-1.327-1.083-2.204-1.113-0.261-0.009-0.298 0.377-0.035 0.385zM24.821 21.135c0.732 0.25 1.272 0.79 1.517 1.488 0.083 0.236 0.452 0.073 0.37-0.161-0.278-0.793-0.924-1.409-1.75-1.691-0.246-0.084-0.384 0.28-0.137 0.365z">
      </path>
      <path fill="#000" style="fill: var(--color2, #000)"
        d="M15.397 23.81c0.534 1.139 1.571 2.319 2.99 3.265l-0.139 0.187c-1.447-0.965-2.515-2.175-3.069-3.357-0.553-1.179-0.602-2.351 0.034-3.213l0.194 0.129c-0.568 0.768-0.546 1.847-0.011 2.988zM22.634 28.637c1.312 0.090 2.386-0.257 2.954-1.025l0.194 0.129c-0.637 0.862-1.814 1.216-3.168 1.123-1.358-0.093-2.919-0.637-4.365-1.601l0.139-0.188c1.418 0.946 2.939 1.472 4.248 1.562zM16.059 21.035l-1.493-0.445 0.074-0.217 1.493 0.445-0.074 0.217z">
      </path>
      <path fill="#000" style="fill: var(--color2, #000)"
        d="M26.029 28.083l-0.81-0.697 0.161-0.17 0.81 0.697-0.161 0.17zM19.448 19.461c0.001-0.323 0.137-0.555 0.197-0.646l0.134 0.080c-0.052 0.079-0.171 0.282-0.172 0.564zM19.604 20.046c-0.098-0.168-0.157-0.369-0.157-0.584 0-0 0-0 0-0v0zM19.604 20.046l0.139-0.075zM19.743 19.97c-0.086-0.147-0.137-0.323-0.137-0.511 0-0 0-0 0-0v0zM19.769 19.496c0-0.24 0.061-0.413 0.089-0.483l0.148 0.052c-0.023 0.058-0.078 0.212-0.079 0.428v0c-0 0.188 0.041 0.327 0.062 0.389l-0.151 0.050c-0.025-0.071-0.071-0.227-0.070-0.436zM20.108 19.614c0-0.131 0.038-0.253 0.103-0.356l-0.002 0.003 0.136 0.076c-0.049 0.078-0.078 0.174-0.078 0.276 0 0.091 0.023 0.177 0.064 0.251l-0.001-0.003-0.141 0.072c-0.051-0.092-0.080-0.202-0.080-0.319 0-0 0-0.001 0-0.001v0zM25.73 23.464c0.201-0.070 0.37-0.189 0.498-0.344l0.001-0.002 0.124 0.093c-0.149 0.179-0.342 0.315-0.563 0.393l-0.009 0.003c-0.13 0.046-0.28 0.073-0.436 0.073-0.069 0-0.137-0.005-0.203-0.015l0.007 0.001 0.027-0.15c0.098 0.015 0.309 0.033 0.553-0.051zM25.585 23.188c0.213-0.074 0.347-0.175 0.397-0.216l0.102 0.115c-0.059 0.048-0.21 0.162-0.448 0.244zM25.585 23.188c-0.186 0.064-0.338 0.075-0.406 0.076zM25.179 23.265l0.002 0.152zM25.181 23.417c0.079-0.002 0.248-0.014 0.456-0.085zM25.354 22.925c0.137-0.047 0.216-0.129 0.245-0.163l0.122 0.096c-0.039 0.045-0.141 0.15-0.315 0.21h-0c-0.075 0.027-0.162 0.042-0.252 0.042-0.032 0-0.064-0.002-0.095-0.006l0.004 0 0.023-0.151c0.046 0.006 0.149 0.012 0.268-0.029z">
      </path>
      <path fill="#000" style="fill: var(--color2, #000)"
        d="M18.406 27.379c0.248-0.189 0.184-0.657-0.143-1.046s-0.794-0.551-1.043-0.362c-0.248 0.189-0.184 0.657 0.143 1.046s0.794 0.551 1.043 0.362z">
      </path>
      <path fill="#000" style="fill: var(--color2, #000)"
        d="M18.136 27.638c0.505 0.337 0.959 0.551 1.013 0.479s-0.312-0.405-0.818-0.742-0.959-0.551-1.013-0.479c-0.054 0.073 0.312 0.405 0.818 0.742z">
      </path>
      <path fill="#000" style="fill: var(--color2, #000)"
        d="M18.962 28.097c0.477 0.206 0.971 0.15 1.102-0.125s-0.148-0.665-0.626-0.871c-0.477-0.206-0.971-0.15-1.102 0.125s0.148 0.665 0.626 0.871z">
      </path>
    </symbol>
    <symbol id="icon-eye" viewBox="0 0 29 32">
      <path fill="#fff" style="fill: var(--color1, #fff)"
        d="M7.841 26.572c3.801 2.087 9.794-1.010 13.387-6.918s3.424-12.388-0.376-14.476c-3.801-2.087-9.795 1.010-13.387 6.917s-3.424 12.389 0.376 14.476z">
      </path>
      <path fill="#000" style="fill: var(--color2, #000)"
        d="M20.56 5.658c3.457 1.899 3.533 8.181 0.164 13.72s-9.134 8.614-12.592 6.715c-3.457-1.899-3.533-8.181-0.164-13.721s9.138-8.612 12.592-6.715zM21.143 4.7c-4.078-2.24-10.428 0.948-14.182 7.12-3.753 6.172-3.489 12.992 0.589 15.232s10.428-0.948 14.182-7.12c3.754-6.172 3.494-12.99-0.589-15.231z">
      </path>
      <path fill="#000" style="fill: var(--color2, #000)"
        d="M11.142 21.144c2.132 1.171 5.469-0.524 7.453-3.787s1.864-6.856-0.268-8.027c-2.132-1.171-5.469 0.525-7.453 3.787s-1.864 6.856 0.268 8.027z">
      </path>
      <path fill="#000" style="fill: var(--color2, #000)"
        d="M18.229 9.49c2.038 1.119 2.125 4.605 0.197 7.775s-5.15 4.838-7.188 3.719c-2.037-1.119-2.125-4.604-0.197-7.775s5.154-4.837 7.188-3.719zM18.424 9.17c-2.226-1.222-5.681 0.505-7.718 3.854s-1.887 7.057 0.339 8.279c2.226 1.223 5.681-0.505 7.718-3.854s1.887-7.057-0.339-8.279z">
      </path>
      <path fill="#fff" style="fill: var(--color1, #fff)"
        d="M15.715 16.628c1.283 0.705 3.106-0.011 4.071-1.598s0.708-3.445-0.575-4.15c-1.283-0.705-3.106 0.011-4.071 1.598s-0.708 3.445 0.576 4.15z">
      </path>
    </symbol>
  </defs>
</svg>