<svg aria-hidden="true" style="position: absolute; width: 0; height: 0; overflow: hidden;" version="1.1" xmlns="http://www.w3.org/2000/svg" xmlns:xlink="http://www.w3.org/1999/xlink">
<defs>
<symbol id="icon-burger" viewBox="0 0 32 32">
<path d="M5 10c0-0.552 0.448-1 1-1v0h20c0.552 0 1 0.448 1 1s-0.448 1-1 1v0h-20c-0.552 0-1-0.448-1-1v0zM5 16c0-0.552 0.448-1 1-1v0h20c0.552 0 1 0.448 1 1s-0.448 1-1 1v0h-20c-0.552 0-1-0.448-1-1v0zM5 22c0-0.552 0.448-1 1-1v0h20c0.552 0 1 0.448 1 1s-0.448 1-1 1v0h-20c-0.552 0-1-0.448-1-1v0z"></path>
</symbol>
<symbol id="icon-smile1" viewBox="0 0 33 32">
<path fill="#fcfcfc" style="fill: var(--color1, #fcfcfc)" d="M12.569 20.739c1.387-0.473 1.894-2.72 1.133-5.020-0.761-2.299-2.502-3.78-3.889-3.308-1.386 0.473-1.893 2.721-1.132 5.020s2.502 3.781 3.889 3.308z"></path>
<path fill="#131313" style="fill: var(--color2, #131313)" d="M9.875 12.597c1.261-0.43 2.929 1.027 3.643 3.183s0.251 4.341-1.010 4.771c-1.261 0.43-2.929-1.027-3.643-3.183s-0.25-4.342 1.011-4.772zM9.751 12.224c-1.487 0.507-2.049 2.867-1.254 5.27 0.796 2.403 2.647 3.939 4.134 3.431s2.049-2.867 1.254-5.27-2.645-3.939-4.134-3.431z"></path>
<path fill="#fcfcfc" style="fill: var(--color1, #fcfcfc)" d="M21.017 17.857c1.387-0.473 1.894-2.72 1.133-5.020-0.761-2.299-2.502-3.781-3.888-3.308s-1.894 2.721-1.133 5.020c0.761 2.3 2.502 3.781 3.889 3.308z"></path>
<path fill="#131313" style="fill: var(--color2, #131313)" d="M18.323 9.715c1.261-0.43 2.929 1.027 3.643 3.183s0.251 4.341-1.010 4.772c-1.261 0.43-2.929-1.027-3.643-3.184s-0.25-4.341 1.010-4.771zM18.199 9.342c-1.487 0.507-2.049 2.867-1.254 5.27 0.796 2.402 2.647 3.938 4.134 3.431s2.050-2.867 1.254-5.27c-0.795-2.402-2.645-3.939-4.134-3.431zM11.868 18.626c0.778-0.265 1.068-1.51 0.648-2.78s-1.391-2.085-2.169-1.819c-0.778 0.265-1.068 1.51-0.648 2.78s1.391 2.085 2.169 1.819z"></path>
<path fill="#131313" style="fill: var(--color2, #131313)" d="M10.366 14.089c0.743-0.254 1.679 0.543 2.088 1.778s0.137 2.443-0.606 2.697c-0.743 0.254-1.679-0.543-2.088-1.778s-0.136-2.444 0.606-2.697zM10.325 13.964c-0.812 0.277-1.119 1.559-0.687 2.863s1.439 2.137 2.251 1.86c0.812-0.277 1.119-1.559 0.688-2.863s-1.439-2.137-2.251-1.86zM20.318 15.743c0.778-0.265 1.068-1.51 0.648-2.78s-1.391-2.085-2.169-1.819-1.068 1.51-0.647 2.78c0.42 1.27 1.391 2.085 2.169 1.819z"></path>
<path fill="#131313" style="fill: var(--color2, #131313)" d="M18.817 11.206c0.743-0.253 1.679 0.543 2.088 1.778s0.137 2.443-0.606 2.697c-0.743 0.253-1.679-0.544-2.088-1.778s-0.136-2.444 0.606-2.697zM18.776 11.082c-0.812 0.277-1.119 1.559-0.687 2.863s1.439 2.137 2.251 1.86c0.812-0.277 1.12-1.559 0.688-2.863s-1.439-2.137-2.251-1.86z"></path>
<path fill="#fcfcfc" style="fill: var(--color1, #fcfcfc)" d="M10.548 16.655c0.468-0.159 0.681-0.79 0.477-1.407s-0.749-0.989-1.218-0.829c-0.468 0.16-0.681 0.79-0.477 1.407s0.749 0.989 1.218 0.829zM18.911 13.525c0.468-0.159 0.681-0.79 0.477-1.407s-0.749-0.989-1.218-0.829c-0.468 0.159-0.681 0.79-0.477 1.407s0.749 0.989 1.218 0.829z"></path>
<path fill="#131313" style="fill: var(--color2, #131313)" d="M7.543 10.918c0.206-0.755 0.573-1.532 1.321-1.86 0.696-0.305 1.476-0.114 2.145 0.174 0.458 0.198 0.806-0.506 0.345-0.704-0.89-0.385-1.912-0.598-2.831-0.18-0.967 0.441-1.468 1.419-1.738 2.409-0.134 0.489 0.625 0.645 0.759 0.16zM16.456 7.099c1.943 0.221 3.943-0.050 5.753-0.807 0.459-0.191 0.215-0.939-0.247-0.746-1.679 0.702-3.541 0.988-5.349 0.782-0.493-0.057-0.654 0.713-0.158 0.771z"></path>
<path fill="none" stroke="#131313" style="stroke: var(--color2, #131313)" stroke-linejoin="miter" stroke-linecap="butt" stroke-miterlimit="10" stroke-width="0.831" d="M19.259 25.719c-6.323 2.157-12.479 0.79-13.752-3.055"></path>
<path fill="none" stroke="#131313" style="stroke: var(--color2, #131313)" stroke-linejoin="miter" stroke-linecap="butt" stroke-miterlimit="10" stroke-width="0.831" d="M28.402 14.853c1.272 3.845-2.821 8.71-9.144 10.867M4.262 23.434l2.406-1.789M27.36 15l2.043-0.419"></path>
</symbol>
<symbol id="icon-smile2" viewBox="0 0 33 32">
<path fill="#fcfcfc" style="fill: var(--color1, #fcfcfc)" d="M11.929 16.414c1.182 0.692 3.045-0.336 4.16-2.297s1.060-4.112-0.122-4.805c-1.182-0.693-3.044 0.335-4.16 2.296s-1.060 4.112 0.122 4.805z"></path>
<path fill="#131313" style="fill: var(--color2, #131313)" d="M15.877 9.47c1.076 0.631 1.101 2.716 0.056 4.555s-2.837 2.86-3.913 2.229c-1.075-0.63-1.101-2.716-0.055-4.554s2.838-2.859 3.912-2.229zM16.057 9.152c-1.268-0.743-3.241 0.315-4.406 2.364s-1.081 4.313 0.188 5.056c1.268 0.744 3.241-0.315 4.406-2.363s1.081-4.312-0.188-5.056z"></path>
<path fill="#fcfcfc" style="fill: var(--color1, #fcfcfc)" d="M19.131 20.636c1.182 0.692 3.044-0.336 4.159-2.297s1.061-4.112-0.122-4.805c-1.182-0.693-3.044 0.335-4.159 2.296s-1.061 4.112 0.122 4.805z"></path>
<path fill="#131313" style="fill: var(--color2, #131313)" d="M23.079 13.693c1.075 0.63 1.101 2.716 0.055 4.554s-2.837 2.86-3.912 2.229c-1.076-0.63-1.101-2.715-0.056-4.554s2.838-2.859 3.913-2.229zM23.259 13.375c-1.268-0.743-3.241 0.315-4.406 2.363s-1.081 4.313 0.188 5.056c1.269 0.743 3.241-0.315 4.406-2.363s1.082-4.312-0.188-5.056zM12.952 14.611c0.663 0.389 1.7-0.174 2.316-1.257s0.577-2.276-0.086-2.665c-0.663-0.389-1.7 0.174-2.316 1.257s-0.577 2.276 0.086 2.665z"></path>
<path fill="#131313" style="fill: var(--color2, #131313)" d="M15.152 10.743c0.634 0.371 0.662 1.529 0.064 2.581s-1.599 1.606-2.233 1.235c-0.634-0.372-0.663-1.529-0.064-2.581s1.6-1.606 2.233-1.235zM15.212 10.637c-0.693-0.406-1.766 0.167-2.398 1.279s-0.585 2.343 0.108 2.748c0.692 0.406 1.766-0.168 2.398-1.28s0.584-2.343-0.108-2.748zM20.157 18.834c0.663 0.389 1.7-0.174 2.316-1.257s0.577-2.276-0.086-2.664c-0.663-0.389-1.7 0.174-2.316 1.257s-0.577 2.276 0.086 2.665z"></path>
<path fill="#131313" style="fill: var(--color2, #131313)" d="M22.356 14.965c0.634 0.371 0.663 1.529 0.064 2.581s-1.6 1.606-2.233 1.235c-0.634-0.372-0.662-1.529-0.064-2.581s1.6-1.605 2.233-1.234zM22.416 14.86c-0.692-0.406-1.766 0.167-2.398 1.279s-0.584 2.343 0.108 2.748c0.692 0.406 1.766-0.168 2.398-1.28s0.585-2.343-0.108-2.748z"></path>
<path fill="#fcfcfc" style="fill: var(--color1, #fcfcfc)" d="M14.372 13.112c0.399 0.234 0.965-0.003 1.265-0.53s0.219-1.143-0.181-1.377c-0.399-0.234-0.965 0.003-1.265 0.53s-0.219 1.143 0.181 1.377zM21.575 17.335c0.4 0.234 0.966-0.004 1.265-0.53s0.219-1.144-0.18-1.378c-0.399-0.234-0.965 0.004-1.264 0.53s-0.219 1.144 0.18 1.378z"></path>
<path fill="#131313" style="fill: var(--color2, #131313)" d="M14.965 6.548c1.329 0.096 2.537 0.807 3.286 1.925 0.261 0.389 0.89 0.027 0.628-0.364-0.904-1.35-2.313-2.18-3.918-2.296-0.464-0.034-0.458 0.701 0.004 0.734zM22.481 10.954c1.329 0.096 2.537 0.807 3.286 1.925 0.261 0.389 0.89 0.028 0.628-0.363-0.904-1.35-2.313-2.18-3.918-2.296-0.464-0.034-0.458 0.7 0.004 0.734z"></path>
<path fill="none" stroke="#131313" style="stroke: var(--color2, #131313)" stroke-linejoin="miter" stroke-linecap="butt" stroke-miterlimit="10" stroke-width="0.6605" d="M12.899 23.272c-5.392-3.16-8.25-8.38-6.386-11.657M26.037 23.058c-1.864 3.278-7.746 3.374-13.136 0.214M5.214 11.206l2.719 0.604M25.291 22.409l1.55 1.191"></path>
</symbol>
<symbol id="icon-smile3" viewBox="0 0 32 32">
<path fill="#fcfcfc" style="fill: var(--color1, #fcfcfc)" d="M11.812 15.692c1.095 0.78 3.001-0.060 4.257-1.876s1.386-3.922 0.291-4.702c-1.095-0.78-3.001 0.060-4.257 1.876s-1.386 3.922-0.291 4.702z"></path>
<path fill="#131313" style="fill: var(--color2, #131313)" d="M16.257 9.26c0.996 0.71 0.844 2.748-0.334 4.452s-3.013 2.543-4.010 1.833c-0.997-0.71-0.844-2.748 0.334-4.452s3.015-2.542 4.010-1.833zM16.461 8.965c-1.176-0.837-3.192 0.022-4.504 1.921s-1.423 4.116-0.248 4.953c1.176 0.837 3.192-0.022 4.504-1.921s1.424-4.115 0.248-4.953z"></path>
<path fill="#fcfcfc" style="fill: var(--color1, #fcfcfc)" d="M18.486 20.447c1.095 0.78 3.001-0.060 4.256-1.876s1.386-3.922 0.291-4.702c-1.095-0.78-3.001 0.060-4.257 1.876s-1.386 3.922-0.291 4.702z"></path>
<path fill="#131313" style="fill: var(--color2, #131313)" d="M22.931 14.015c0.996 0.71 0.844 2.748-0.334 4.452s-3.014 2.543-4.010 1.833-0.844-2.748 0.334-4.452c1.178-1.704 3.015-2.542 4.010-1.833zM23.135 13.721c-1.175-0.837-3.192 0.022-4.504 1.921s-1.423 4.116-0.248 4.953 3.192-0.023 4.504-1.921c1.312-1.898 1.424-4.115 0.248-4.953zM14.032 13.317c0.614 0.438 1.674-0.021 2.368-1.024s0.758-2.171 0.143-2.609c-0.615-0.438-1.675 0.020-2.368 1.024s-0.758 2.171-0.143 2.609z"></path>
<path fill="#131313" style="fill: var(--color2, #131313)" d="M16.509 9.732c0.587 0.418 0.517 1.551-0.158 2.525s-1.699 1.428-2.286 1.010-0.516-1.551 0.158-2.526c0.674-0.975 1.699-1.427 2.285-1.009zM16.577 9.634c-0.641-0.457-1.738 0.008-2.45 1.039s-0.77 2.236-0.129 2.693c0.642 0.457 1.739-0.008 2.45-1.039s0.77-2.236 0.129-2.693zM20.802 18.141c0.614 0.438 1.674-0.020 2.368-1.024s0.758-2.171 0.143-2.609c-0.614-0.438-1.674 0.020-2.368 1.024s-0.758 2.171-0.143 2.609z"></path>
<path fill="#131313" style="fill: var(--color2, #131313)" d="M23.28 14.557c0.587 0.418 0.516 1.551-0.158 2.525s-1.698 1.428-2.285 1.010-0.517-1.551 0.158-2.526c0.674-0.975 1.699-1.427 2.286-1.009zM23.348 14.458c-0.642-0.457-1.739 0.008-2.45 1.039s-0.77 2.236-0.129 2.693c0.641 0.457 1.738-0.008 2.45-1.039s0.77-2.236 0.129-2.693z"></path>
<path fill="#fcfcfc" style="fill: var(--color1, #fcfcfc)" d="M13.701 12.861c0.288 0.205 0.733 0.063 0.996-0.317s0.242-0.854-0.046-1.058c-0.287-0.204-0.733-0.063-0.995 0.317s-0.242 0.854 0.045 1.058zM20.501 17.853c0.288 0.205 0.733 0.063 0.995-0.317s0.242-0.853-0.045-1.058c-0.288-0.204-0.733-0.063-0.995 0.317s-0.242 0.854 0.045 1.058z"></path>
<path fill="#131313" style="fill: var(--color2, #131313)" d="M15.386 6.322c1.353 0.050 2.557 0.706 3.356 1.814 0.27 0.374 0.816-0.085 0.547-0.458-0.903-1.253-2.315-2.016-3.844-2.072-0.455-0.016-0.517 0.701-0.059 0.717zM23.254 11.195c1.276 0.466 2.219 1.47 2.648 2.769 0.145 0.439 0.788 0.135 0.645-0.3-0.494-1.468-1.607-2.611-3.020-3.137l-0.035-0.011c-0.429-0.156-0.669 0.521-0.238 0.679z"></path>
<path fill="none" stroke="#131313" style="stroke: var(--color2, #131313)" stroke-linejoin="miter" stroke-linecap="butt" stroke-miterlimit="10" stroke-width="0.6207" d="M11.914 22.434c-4.994-3.559-7.341-8.906-5.241-11.943"></path>
<path fill="none" stroke="#131313" style="stroke: var(--color2, #131313)" stroke-linejoin="miter" stroke-linecap="butt" stroke-miterlimit="10" stroke-width="0.6207" d="M24.759 23.379c-2.1 3.037-7.85 2.614-12.845-0.945M5.438 9.978l2.603 0.829M24.086 22.681l1.411 1.299"></path>
<path fill="none" stroke="#131313" style="stroke: var(--color2, #131313)" stroke-linejoin="miter" stroke-linecap="butt" stroke-miterlimit="10" stroke-width="0.4141" d="M14.343 6.949c-0.2 0.32-0.32 0.709-0.321 1.126v0c0 0.002 0 0.003 0 0.005 0 0.372 0.095 0.722 0.261 1.027l-0.006-0.011M14.73 7.293c-0.093 0.248-0.147 0.534-0.147 0.832 0 0.005 0 0.011 0 0.017v-0.001c0 0.37 0.076 0.645 0.116 0.768M15.331 7.775c-0.098 0.168-0.156 0.369-0.156 0.584 0 0 0 0.001 0 0.001v-0c0 0.255 0.081 0.445 0.125 0.53M25.816 14.977c-0.239 0.308-0.555 0.546-0.92 0.685l-0.014 0.005c-0.212 0.081-0.457 0.127-0.712 0.127-0.113 0-0.224-0.009-0.332-0.027l0.012 0.002M25.368 14.725c-0.095 0.083-0.343 0.283-0.736 0.428-0.222 0.086-0.478 0.14-0.746 0.151l-0.005 0M24.716 14.316c-0.211 0.256-0.528 0.418-0.883 0.418-0.049 0-0.098-0.003-0.145-0.009l0.006 0.001"></path>
<path fill="#131313" style="fill: var(--color2, #131313); stroke: var(--color2, #131313)" stroke="#131313" stroke-linejoin="miter" stroke-linecap="butt" stroke-miterlimit="10" stroke-width="0.6207" d="M12.069 22.826c0.433-0.352 0.321-1.224-0.25-1.948s-1.385-1.026-1.818-0.674-0.321 1.224 0.25 1.948c0.571 0.724 1.385 1.026 1.818 0.674z"></path>
<path fill="#131313" style="fill: var(--color2, #131313); stroke: var(--color2, #131313)" stroke="#131313" stroke-linejoin="miter" stroke-linecap="butt" stroke-miterlimit="10" stroke-width="0.6207" d="M11.599 23.308c0.881 0.628 1.672 1.027 1.766 0.892s-0.545-0.755-1.427-1.383c-0.881-0.628-1.672-1.027-1.765-0.892s0.545 0.755 1.427 1.383z"></path>
<path fill="#131313" style="fill: var(--color2, #131313); stroke: var(--color2, #131313)" stroke="#131313" stroke-linejoin="miter" stroke-linecap="butt" stroke-miterlimit="10" stroke-width="0.6207" d="M13.038 24.165c0.832 0.384 1.692 0.279 1.922-0.234s-0.259-1.24-1.091-1.623c-0.832-0.384-1.692-0.279-1.922 0.234s0.259 1.24 1.091 1.623z"></path>
</symbol>
<symbol id="icon-button-arrow" viewBox="0 0 32 32">
<path d="M8.592 3.659c0.493-0.608 1.239-0.993 2.076-0.993 0.637 0 1.222 0.224 1.681 0.597l-0.005-0.004 13.2 10.667c0.607 0.493 0.991 1.239 0.991 2.075s-0.385 1.582-0.986 2.071l-0.005 0.004-13.2 10.667c-0.454 0.369-1.039 0.592-1.676 0.592-1.473 0-2.667-1.194-2.667-2.667 0-0.836 0.384-1.582 0.986-2.071l0.005-0.004 10.632-8.592-10.632-8.592c-0.607-0.493-0.991-1.239-0.991-2.075 0-0.637 0.223-1.221 0.595-1.68l-0.004 0.005z"></path>
</symbol>
<symbol id="icon-arrow" viewBox="0 0 82 32">
<path d="M68.686 1.858l12.728 12.728c0.362 0.362 0.586 0.862 0.586 1.414s-0.224 1.052-0.586 1.414l-12.728 12.728c-0.359 0.347-0.849 0.561-1.389 0.561-1.105 0-2-0.895-2-2 0-0.54 0.214-1.030 0.562-1.39l-0.001 0.001 9.314-9.314h-75.172v-4h75.172l-9.314-9.314c-0.335-0.357-0.541-0.838-0.541-1.368 0-1.105 0.895-2 2-2 0.53 0 1.012 0.206 1.37 0.543l-0.001-0.001z"></path>
</symbol>
</defs>
</svg>
