<svg aria-hidden="true" style="position: absolute; width: 0; height: 0; overflow: hidden;" version="1.1" xmlns="http://www.w3.org/2000/svg" xmlns:xlink="http://www.w3.org/1999/xlink">
<defs>
<symbol id="icon-burger" viewBox="0 0 32 32">
<path d="M5 10c0-0.552 0.448-1 1-1v0h20c0.552 0 1 0.448 1 1s-0.448 1-1 1v0h-20c-0.552 0-1-0.448-1-1v0zM5 16c0-0.552 0.448-1 1-1v0h20c0.552 0 1 0.448 1 1s-0.448 1-1 1v0h-20c-0.552 0-1-0.448-1-1v0zM5 22c0-0.552 0.448-1 1-1v0h20c0.552 0 1 0.448 1 1s-0.448 1-1 1v0h-20c-0.552 0-1-0.448-1-1v0z"></path>
</symbol>
<symbol id="icon-cross" viewBox="0 0 32 32">
<path d="M23.884 6.706l-7.884 7.884-7.884-7.884c-0.177-0.162-0.414-0.262-0.674-0.262-0.551 0-0.998 0.447-0.998 0.998 0 0.26 0.099 0.497 0.262 0.674l-0.001-0.001 7.88 7.884-7.882 7.882c-0.181 0.181-0.293 0.43-0.293 0.706 0 0.551 0.447 0.998 0.998 0.998 0.275 0 0.524-0.111 0.705-0.292v0l7.886-7.882 7.884 7.884c0.177 0.162 0.414 0.262 0.674 0.262 0.551 0 0.998-0.447 0.998-0.998 0-0.26-0.099-0.497-0.262-0.674l0.001 0.001-7.884-7.884 7.884-7.886c0.181-0.181 0.293-0.43 0.293-0.706 0-0.551-0.447-0.998-0.998-0.998-0.275 0-0.524 0.111-0.705 0.292v0 0.002z"></path>
</symbol>
<symbol id="icon-button-arrow" viewBox="0 0 32 32">
<path d="M8.592 3.659c0.493-0.608 1.239-0.993 2.076-0.993 0.637 0 1.222 0.224 1.681 0.597l-0.005-0.004 13.2 10.667c0.607 0.493 0.991 1.239 0.991 2.075s-0.385 1.582-0.986 2.071l-0.005 0.004-13.2 10.667c-0.454 0.369-1.039 0.592-1.676 0.592-1.473 0-2.667-1.194-2.667-2.667 0-0.836 0.384-1.582 0.986-2.071l0.005-0.004 10.632-8.592-10.632-8.592c-0.607-0.493-0.991-1.239-0.991-2.075 0-0.637 0.223-1.221 0.595-1.68l-0.004 0.005z"></path>
</symbol>
<symbol id="icon-arrow" viewBox="0 0 82 32">
<path d="M68.686 1.858l12.728 12.728c0.362 0.362 0.586 0.862 0.586 1.414s-0.224 1.052-0.586 1.414l-12.728 12.728c-0.359 0.347-0.849 0.561-1.389 0.561-1.105 0-2-0.895-2-2 0-0.54 0.214-1.030 0.562-1.39l-0.001 0.001 9.314-9.314h-75.172v-4h75.172l-9.314-9.314c-0.335-0.357-0.541-0.838-0.541-1.368 0-1.105 0.895-2 2-2 0.53 0 1.012 0.206 1.37 0.543l-0.001-0.001z"></path>
</symbol>
<symbol id="icon-smiles" viewBox="0 0 30 32">
<path fill="#fff" style="fill: var(--color1, #fff)" d="M20.419 10.93c0.637 0.35 1.64-0.169 2.242-1.159s0.573-2.075-0.063-2.424c-0.637-0.349-1.64 0.169-2.242 1.159s-0.573 2.075 0.063 2.424z"></path>
<path fill="#000" style="fill: var(--color2, #000)" d="M22.549 7.427c0.579 0.318 0.592 1.37 0.027 2.298s-1.53 1.443-2.109 1.125c-0.579-0.318-0.592-1.37-0.027-2.298s1.53-1.442 2.109-1.125zM22.647 7.267c-0.683-0.375-1.747 0.159-2.375 1.192s-0.584 2.176 0.099 2.551c0.683 0.375 1.747-0.159 2.375-1.192s0.585-2.175-0.099-2.551z"></path>
<path fill="#000" style="fill: var(--color2, #000)" d="M20.972 10.021c0.357 0.196 0.916-0.088 1.248-0.634s0.312-1.148-0.045-1.344c-0.357-0.196-0.916 0.088-1.248 0.634s-0.312 1.148 0.045 1.344z"></path>
<path fill="#000" style="fill: var(--color2, #000)" d="M22.159 8.069c0.341 0.187 0.356 0.771 0.033 1.302s-0.863 0.81-1.204 0.623c-0.341-0.187-0.356-0.771-0.033-1.302s0.863-0.81 1.204-0.623zM22.192 8.016c-0.373-0.205-0.951 0.085-1.293 0.646s-0.316 1.182 0.057 1.387c0.373 0.205 0.951-0.085 1.293-0.646s0.316-1.182-0.057-1.387z"></path>
<path fill="#fff" style="fill: var(--color1, #fff)" d="M21.738 9.265c0.215 0.118 0.52-0.002 0.682-0.268s0.119-0.577-0.096-0.695c-0.215-0.118-0.52 0.002-0.682 0.268s-0.119 0.577 0.096 0.695z"></path>
<path fill="#000" style="fill: var(--color2, #000)" d="M18.175 3.822c0.717 0.048 1.367 0.407 1.77 0.973 0.14 0.197 0.48 0.013 0.34-0.184-0.486-0.683-1.244-1.102-2.111-1.16-0.25-0.017-0.248 0.355 0.001 0.371zM22.227 6.045c0.717 0.048 1.367 0.407 1.77 0.973 0.14 0.197 0.48 0.014 0.34-0.184-0.486-0.683-1.244-1.102-2.111-1.16-0.25-0.017-0.248 0.355 0.001 0.371z"></path>
<path fill="#000" style="fill: var(--color2, #000)" d="M13.977 9.284c0.611 1.044 1.706 2.087 3.144 2.876l-0.121 0.199c-1.468-0.805-2.596-1.875-3.231-2.96-0.633-1.082-0.786-2.2-0.253-3.077l0.204 0.112c-0.472 0.777-0.357 1.803 0.256 2.849z"></path>
<path fill="#000" style="fill: var(--color2, #000)" d="M21.315 13.31c1.26-0.019 2.253-0.437 2.725-1.214l0.204 0.112c-0.533 0.877-1.628 1.31-2.93 1.33-1.306 0.020-2.845-0.373-4.313-1.179l0.121-0.199c1.438 0.789 2.937 1.169 4.194 1.149zM14.357 6.589l-1.465-0.305 0.055-0.223 1.465 0.305-0.055 0.223z"></path>
<path fill="#000" style="fill: var(--color2, #000)" d="M24.504 12.518l-0.835-0.601 0.145-0.184 0.835 0.601-0.145 0.184z"></path>
<path fill="#fff" style="fill: var(--color1, #fff)" d="M5.322 17.943c0.593-0.19 0.809-1.091 0.483-2.014s-1.073-1.516-1.666-1.327c-0.593 0.19-0.809 1.091-0.483 2.014s1.073 1.516 1.666 1.327z"></path>
<path fill="#000" style="fill: var(--color2, #000)" d="M4.165 14.678c0.54-0.173 1.254 0.412 1.561 1.277s0.109 1.741-0.431 1.914c-0.54 0.173-1.254-0.412-1.561-1.277s-0.109-1.741 0.431-1.914zM4.112 14.528c-0.637 0.204-0.876 1.15-0.535 2.114s1.134 1.58 1.771 1.376c0.637-0.204 0.876-1.15 0.535-2.114s-1.134-1.58-1.771-1.376z"></path>
<path fill="#fff" style="fill: var(--color1, #fff)" d="M8.941 16.787c0.593-0.19 0.809-1.091 0.483-2.014s-1.073-1.516-1.666-1.327c-0.593 0.19-0.809 1.091-0.483 2.014s1.073 1.516 1.666 1.327z"></path>
<path fill="#000" style="fill: var(--color2, #000)" d="M7.785 13.522c0.54-0.173 1.254 0.412 1.561 1.277s0.109 1.741-0.431 1.914-1.254-0.412-1.561-1.277c-0.306-0.865-0.109-1.741 0.431-1.914zM7.732 13.372c-0.637 0.204-0.876 1.15-0.535 2.114s1.134 1.58 1.771 1.376c0.637-0.204 0.876-1.15 0.535-2.114s-1.134-1.58-1.771-1.376zM5.022 17.096c0.333-0.107 0.456-0.606 0.276-1.115s-0.596-0.836-0.929-0.73c-0.333 0.107-0.456 0.606-0.276 1.115s0.596 0.836 0.929 0.73z"></path>
<path fill="#000" style="fill: var(--color2, #000)" d="M4.377 15.276c0.318-0.102 0.719 0.218 0.894 0.713s0.059 0.98-0.259 1.082c-0.318 0.102-0.719-0.218-0.894-0.713s-0.059-0.98 0.259-1.082zM4.359 15.226c-0.348 0.111-0.479 0.625-0.293 1.148s0.617 0.857 0.964 0.746c0.348-0.111 0.479-0.625 0.293-1.148s-0.617-0.857-0.964-0.746zM8.641 15.94c0.333-0.107 0.456-0.606 0.276-1.115s-0.597-0.836-0.929-0.73c-0.333 0.106-0.456 0.606-0.276 1.115s0.596 0.836 0.929 0.73z"></path>
<path fill="#000" style="fill: var(--color2, #000)" d="M7.997 14.12c0.318-0.102 0.719 0.218 0.894 0.713s0.059 0.98-0.259 1.082c-0.318 0.102-0.719-0.218-0.894-0.713s-0.059-0.98 0.259-1.082zM7.979 14.070c-0.348 0.111-0.479 0.625-0.293 1.148s0.617 0.857 0.964 0.746c0.347-0.111 0.479-0.625 0.293-1.148s-0.617-0.857-0.964-0.746z"></path>
<path fill="#fff" style="fill: var(--color1, #fff)" d="M4.455 16.306c0.2-0.064 0.292-0.317 0.204-0.565s-0.321-0.397-0.522-0.333c-0.2 0.064-0.292 0.317-0.204 0.565s0.321 0.397 0.522 0.333zM8.039 15.050c0.2-0.064 0.291-0.317 0.204-0.565s-0.321-0.397-0.522-0.333c-0.2 0.064-0.292 0.317-0.204 0.565s0.321 0.397 0.522 0.333z"></path>
<path fill="#000" style="fill: var(--color2, #000)" d="M3.169 14.006c0.088-0.303 0.244-0.616 0.564-0.748 0.298-0.123 0.632-0.046 0.919 0.070 0.196 0.080 0.345-0.203 0.147-0.283-0.382-0.155-0.82-0.24-1.213-0.072-0.414 0.177-0.628 0.57-0.743 0.968-0.057 0.197 0.268 0.259 0.325 0.064zM6.987 12.474c0.833 0.089 1.69-0.020 2.464-0.324 0.196-0.077 0.091-0.378-0.106-0.3-0.719 0.282-1.516 0.397-2.291 0.314-0.211-0.023-0.28 0.287-0.067 0.31z"></path>
<path fill="#000" style="fill: var(--color2, #000)" d="M4.451 20.117c1.043 0.217 2.358 0.14 3.697-0.287l0.078 0.22c-1.37 0.438-2.728 0.52-3.818 0.293-1.086-0.226-1.931-0.766-2.224-1.593l0.222-0.071c0.253 0.715 0.999 1.22 2.045 1.438zM11.277 17.937c0.696-0.774 0.969-1.605 0.716-2.32l0.222-0.071c0.292 0.827-0.038 1.742-0.761 2.546-0.725 0.806-1.859 1.52-3.229 1.957l-0.078-0.22c1.339-0.427 2.436-1.122 3.129-1.893z"></path>
<path fill="#000" style="fill: var(--color2, #000)" d="M2.863 18.401l-1.031 0.718-0.139-0.189 1.031-0.717 0.139 0.189zM12.559 15.587l-0.875 0.168-0.051-0.227 0.875-0.168 0.051 0.227z"></path>
<path fill="#fff" style="fill: var(--color1, #fff)" d="M18.257 23.549c0.628 0.419 1.721-0.032 2.442-1.007s0.797-2.106 0.169-2.524c-0.628-0.419-1.721 0.032-2.442 1.008s-0.796 2.105-0.169 2.524z"></path>
<path fill="#000" style="fill: var(--color2, #000)" d="M20.809 20.096c0.571 0.381 0.482 1.475-0.194 2.39s-1.729 1.365-2.3 0.984c-0.571-0.381-0.483-1.475 0.193-2.39s1.73-1.365 2.3-0.984zM20.926 19.938c-0.673-0.449-1.83 0.012-2.583 1.031s-0.818 2.209-0.144 2.659c0.673 0.449 1.83-0.012 2.583-1.031s0.818-2.209 0.144-2.659z"></path>
<path fill="#fff" style="fill: var(--color1, #fff)" d="M22.085 26.102c0.628 0.419 1.721-0.032 2.442-1.008s0.796-2.105 0.169-2.524c-0.628-0.419-1.721 0.032-2.442 1.007s-0.796 2.106-0.169 2.524z"></path>
<path fill="#000" style="fill: var(--color2, #000)" d="M24.637 22.649c0.571 0.381 0.482 1.475-0.194 2.39s-1.729 1.365-2.3 0.984c-0.571-0.381-0.483-1.475 0.194-2.39s1.73-1.365 2.3-0.984zM24.754 22.491c-0.674-0.45-1.83 0.012-2.583 1.031s-0.818 2.209-0.144 2.659 1.83-0.012 2.583-1.031c0.753-1.019 0.818-2.209 0.144-2.659zM19.531 22.274c0.352 0.235 0.96-0.011 1.358-0.55s0.435-1.166 0.083-1.401c-0.352-0.235-0.96 0.011-1.358 0.55s-0.435 1.166-0.083 1.401z"></path>
<path fill="#000" style="fill: var(--color2, #000)" d="M20.953 20.349c0.336 0.225 0.295 0.832-0.091 1.356s-0.975 0.767-1.311 0.542c-0.336-0.225-0.295-0.832 0.092-1.356s0.975-0.766 1.311-0.542zM20.992 20.297c-0.368-0.245-0.997 0.005-1.405 0.558s-0.443 1.2-0.075 1.446 0.997-0.005 1.405-0.558c0.409-0.553 0.443-1.2 0.075-1.446zM23.414 24.864c0.352 0.235 0.96-0.011 1.358-0.55s0.435-1.166 0.083-1.401c-0.352-0.235-0.96 0.011-1.358 0.55s-0.435 1.166-0.083 1.401z"></path>
<path fill="#000" style="fill: var(--color2, #000)" d="M24.836 22.939c0.336 0.225 0.295 0.832-0.091 1.356s-0.975 0.767-1.311 0.542c-0.336-0.225-0.295-0.832 0.092-1.356s0.975-0.766 1.311-0.542zM24.875 22.887c-0.368-0.245-0.997 0.005-1.405 0.558s-0.443 1.2-0.075 1.446c0.367 0.245 0.997-0.005 1.405-0.558s0.443-1.2 0.075-1.446z"></path>
<path fill="#fff" style="fill: var(--color1, #fff)" d="M19.342 22.029c0.165 0.11 0.42 0.034 0.571-0.17s0.139-0.458-0.026-0.568c-0.165-0.11-0.42-0.034-0.571 0.17s-0.139 0.458 0.025 0.568zM23.242 24.709c0.165 0.11 0.42 0.034 0.571-0.17s0.139-0.458-0.025-0.568c-0.165-0.11-0.42-0.034-0.571 0.17s-0.139 0.458 0.026 0.568z"></path>
<path fill="#000" style="fill: var(--color2, #000)" d="M20.309 18.519c0.776 0.026 1.467 0.378 1.924 0.974 0.154 0.201 0.468-0.046 0.315-0.246-0.517-0.674-1.327-1.083-2.204-1.113-0.261-0.009-0.298 0.377-0.035 0.385zM24.821 21.135c0.732 0.25 1.272 0.79 1.517 1.488 0.083 0.236 0.452 0.073 0.37-0.161-0.278-0.793-0.924-1.409-1.75-1.691-0.246-0.084-0.384 0.28-0.137 0.365z"></path>
<path fill="#000" style="fill: var(--color2, #000)" d="M15.397 23.81c0.534 1.139 1.571 2.319 2.99 3.265l-0.139 0.187c-1.447-0.965-2.515-2.175-3.069-3.357-0.553-1.179-0.602-2.351 0.034-3.213l0.194 0.129c-0.568 0.768-0.546 1.847-0.011 2.988zM22.634 28.637c1.312 0.090 2.386-0.257 2.954-1.025l0.194 0.129c-0.637 0.862-1.814 1.216-3.168 1.123-1.358-0.093-2.919-0.637-4.365-1.601l0.139-0.188c1.418 0.946 2.939 1.472 4.248 1.562zM16.059 21.035l-1.493-0.445 0.074-0.217 1.493 0.445-0.074 0.217z"></path>
<path fill="#000" style="fill: var(--color2, #000)" d="M26.029 28.083l-0.81-0.697 0.161-0.17 0.81 0.697-0.161 0.17zM19.448 19.461c0.001-0.323 0.137-0.555 0.197-0.646l0.134 0.080c-0.052 0.079-0.171 0.282-0.172 0.564zM19.604 20.046c-0.098-0.168-0.157-0.369-0.157-0.584 0-0 0-0 0-0v0zM19.604 20.046l0.139-0.075zM19.743 19.97c-0.086-0.147-0.137-0.323-0.137-0.511 0-0 0-0 0-0v0zM19.769 19.496c0-0.24 0.061-0.413 0.089-0.483l0.148 0.052c-0.023 0.058-0.078 0.212-0.079 0.428v0c-0 0.188 0.041 0.327 0.062 0.389l-0.151 0.050c-0.025-0.071-0.071-0.227-0.070-0.436zM20.108 19.614c0-0.131 0.038-0.253 0.103-0.356l-0.002 0.003 0.136 0.076c-0.049 0.078-0.078 0.174-0.078 0.276 0 0.091 0.023 0.177 0.064 0.251l-0.001-0.003-0.141 0.072c-0.051-0.092-0.080-0.202-0.080-0.319 0-0 0-0.001 0-0.001v0zM25.73 23.464c0.201-0.070 0.37-0.189 0.498-0.344l0.001-0.002 0.124 0.093c-0.149 0.179-0.342 0.315-0.563 0.393l-0.009 0.003c-0.13 0.046-0.28 0.073-0.436 0.073-0.069 0-0.137-0.005-0.203-0.015l0.007 0.001 0.027-0.15c0.098 0.015 0.309 0.033 0.553-0.051zM25.585 23.188c0.213-0.074 0.347-0.175 0.397-0.216l0.102 0.115c-0.059 0.048-0.21 0.162-0.448 0.244zM25.585 23.188c-0.186 0.064-0.338 0.075-0.406 0.076zM25.179 23.265l0.002 0.152zM25.181 23.417c0.079-0.002 0.248-0.014 0.456-0.085zM25.354 22.925c0.137-0.047 0.216-0.129 0.245-0.163l0.122 0.096c-0.039 0.045-0.141 0.15-0.315 0.21h-0c-0.075 0.027-0.162 0.042-0.252 0.042-0.032 0-0.064-0.002-0.095-0.006l0.004 0 0.023-0.151c0.046 0.006 0.149 0.012 0.268-0.029z"></path>
<path fill="#000" style="fill: var(--color2, #000)" d="M18.406 27.379c0.248-0.189 0.184-0.657-0.143-1.046s-0.794-0.551-1.043-0.362c-0.248 0.189-0.184 0.657 0.143 1.046s0.794 0.551 1.043 0.362z"></path>
<path fill="#000" style="fill: var(--color2, #000)" d="M18.136 27.638c0.505 0.337 0.959 0.551 1.013 0.479s-0.312-0.405-0.818-0.742-0.959-0.551-1.013-0.479c-0.054 0.073 0.312 0.405 0.818 0.742z"></path>
<path fill="#000" style="fill: var(--color2, #000)" d="M18.962 28.097c0.477 0.206 0.971 0.15 1.102-0.125s-0.148-0.665-0.626-0.871c-0.477-0.206-0.971-0.15-1.102 0.125s0.148 0.665 0.626 0.871z"></path>
</symbol>
<symbol id="icon-eye" viewBox="0 0 29 32">
<path fill="#fff" style="fill: var(--color1, #fff)" d="M7.841 26.572c3.801 2.087 9.794-1.010 13.387-6.918s3.424-12.388-0.376-14.476c-3.801-2.087-9.795 1.010-13.387 6.917s-3.424 12.389 0.376 14.476z"></path>
<path fill="#000" style="fill: var(--color2, #000)" d="M20.56 5.658c3.457 1.899 3.533 8.181 0.164 13.72s-9.134 8.614-12.592 6.715c-3.457-1.899-3.533-8.181-0.164-13.721s9.138-8.612 12.592-6.715zM21.143 4.7c-4.078-2.24-10.428 0.948-14.182 7.12-3.753 6.172-3.489 12.992 0.589 15.232s10.428-0.948 14.182-7.12c3.754-6.172 3.494-12.99-0.589-15.231z"></path>
<path fill="#000" style="fill: var(--color2, #000)" d="M11.142 21.144c2.132 1.171 5.469-0.524 7.453-3.787s1.864-6.856-0.268-8.027c-2.132-1.171-5.469 0.525-7.453 3.787s-1.864 6.856 0.268 8.027z"></path>
<path fill="#000" style="fill: var(--color2, #000)" d="M18.229 9.49c2.038 1.119 2.125 4.605 0.197 7.775s-5.15 4.838-7.188 3.719c-2.037-1.119-2.125-4.604-0.197-7.775s5.154-4.837 7.188-3.719zM18.424 9.17c-2.226-1.222-5.681 0.505-7.718 3.854s-1.887 7.057 0.339 8.279c2.226 1.223 5.681-0.505 7.718-3.854s1.887-7.057-0.339-8.279z"></path>
<path fill="#fff" style="fill: var(--color1, #fff)" d="M15.715 16.628c1.283 0.705 3.106-0.011 4.071-1.598s0.708-3.445-0.575-4.15c-1.283-0.705-3.106 0.011-4.071 1.598s-0.708 3.445 0.576 4.15z"></path>
</symbol>
</defs>
</svg>
