<svg aria-hidden="true" style="position: absolute; width: 0; height: 0; overflow: hidden;" version="1.1" xmlns="http://www.w3.org/2000/svg" xmlns:xlink="http://www.w3.org/1999/xlink">
<defs>
<symbol id="icon-burger" viewBox="0 0 32 32">
<path d="M5 10c0-0.552 0.448-1 1-1v0h20c0.552 0 1 0.448 1 1s-0.448 1-1 1v0h-20c-0.552 0-1-0.448-1-1v0zM5 16c0-0.552 0.448-1 1-1v0h20c0.552 0 1 0.448 1 1s-0.448 1-1 1v0h-20c-0.552 0-1-0.448-1-1v0zM5 22c0-0.552 0.448-1 1-1v0h20c0.552 0 1 0.448 1 1s-0.448 1-1 1v0h-20c-0.552 0-1-0.448-1-1v0z"></path>
</symbol>
</defs>
</svg>
